<svg xmlns="http://www.w3.org/2000/svg" width="35" height="35"><path d="M31.603 1.506l-2.57 28.786-11.55 3.202-11.52-3.197-2.566-28.79h28.206z" fill-rule="evenodd" fill="#e44d26"/><path d="M17.5 31.047l9.334-2.588 2.195-24.6H17.5v27.187z" fill-rule="evenodd" fill="#f16529"/><path d="M12.505 10.922H17.5v-3.53H8.646l.084.946.868 9.73H17.5v-3.53h-4.673l-.322-3.616z" fill-rule="evenodd" fill="#ebebeb"/><g><path d="M13.3 19.834H9.756l.495 5.545 7.234 2.007.016-.005v-3.674l-.015.005-3.933-1.062-.252-2.816z" fill-rule="evenodd" fill="#ebebeb"/></g><g><path d="M17.488 18.07h4.348l-.41 4.578-3.938 1.064v3.673l7.24-2.006.052-.598.83-9.296.086-.948h-8.208v3.53z" fill-rule="evenodd" fill="#fff"/></g><g><path d="M17.488 10.913v.01h8.53l.07-.795.16-1.79.085-.947h-8.845v3.523z" fill-rule="evenodd" fill="#fff"/></g><g visibility="hidden"><path d="M6.688 8.898s.574 2.21.655 2.95c.082.736-1.474 2.373-1.474 3.192 0 .82.326 2.294 2.128 3.03 1.802.738 2.048 2.622 2.048 3.768 0 1.147-.655 3.358-.655 3.358s-.41 5.487 1.802 6.47c2.21.982 1.72.982 2.21.982.493 0 4.096 1.475 6.226.902 2.13-.574 2.702-1.23 2.702-1.23s2.13.165 2.784-1.72c.656-1.883 1.065-5.813.82-7.615-.246-1.802-.574-4.177.9-4.996 1.475-.82 3.03-1.803 2.785-2.622-.247-.82-1.557-1.965-1.557-1.965s-.328-2.048-.082-2.54c.247-.49 1.72-1.72.902-2.62-.82-.9-2.293-.9-2.293-.9l-1.885.163s-3.194-2.866-7.37-2.703c-4.177.164-6.798 2.703-6.798 2.703s-1.392-.492-2.62 0c-1.23.49-1.474 0-1.23 1.392z" fill-rule="evenodd" fill="#fba919"/><path d="M14.171 21.092c.002 0-1.62 2.48-2.81 4.24-.184.272 1.19.29 1.19.29l1.62-4.53z" fill-rule="evenodd" fill="#e78724"/><path d="M14.944 15.95s-.49 1.22-.757 1.867c-.29.703-1.4 1.052-1.4 1.052s.575-.603.575-2.13c0-.64.827-.895.827-.895l.754.105z" fill-rule="evenodd" fill="#e78724"/><path d="M14.45 16.64s-1.002 1.192-2.862.525c-1.86-.668-2.05-3.053-2.05-3.72 0-.668 3.53.667 4.006.953.477.287 1.383 1.43.906 2.242z" fill-rule="evenodd" fill="#e78724"/><path d="M7.425 3.9s1.716-.335 2.86.572c1.146.906 1.48 1.62 1.48 1.62l-1.93 1.53S8.903 7.19 8.617 5.95C8.33 4.71 8.52 4.138 7.425 3.9z" fill-rule="evenodd" fill="#e78724"/><path d="M13.95 13.196c-.74-1.05-1.958-1.507-2.93-1.583-1.66-.13-2.447.457-2.447.457s2.716.115 3.5 1.143c1.457 1.914 3.583 2.07 3.923 1.65-.393.02-.826-.176-1.29-.614-.288-.275-.522-.72-.757-1.054z" fill-rule="evenodd" fill="#e78724"/><path d="M9.364 16.906S6.35 15.87 6.924 14.82c.57-1.048.116-1.62.116-1.62s-1.683 1.256-1.254 2.591c.263.82.705 1.415 3.133 2.552 1.163 2.163.24 6.056.295 6.075.092.03 1.635-.763 1.53-4.405-.033-1.12-.122-2.646-1.38-3.106z" fill-rule="evenodd" fill="#e78724"/><path d="M13.313 5.766c-1.264.642-2.995 1.536-2.995 1.536l.68.34c-.063.106-.095.17-.095.17l.7.317s1.707 1.235 2.753 2.03c-.35-1.073-1.373-2.76-1.373-2.76s-.29-.776.33-1.634z" fill-rule="evenodd" fill="#e78724"/><path d="M17.51 31.934c-3.883 0-5.2-1.972-5.2-1.972l.608 1.48c.23.638 2.677 2.628 4.587 2.628" fill-rule="evenodd" fill="#e78724"/><path d="M12.737 28.63s.357 2.184 1.788 2.184c1.216 0 1.574-1.845 1.574-2.226l-3.363.042z" fill-rule="evenodd" fill="#e78724"/><path d="M10.356 25.336c.127-.35.572-1.764.715-3.052.172-1.542.11-3.798.11-3.798s-.382 1.48-.716 1.718c-.333.238-.954 1.86-.954 1.86s-.332 2.413-.49 3.225c.438.086.806-.17 1.336.046z" fill-rule="evenodd" fill="#e78724"/><path d="M6.9 15.768s.81-.287 1.05-2.05c.238-1.766-.287-3.292-.287-3.292s.048 2.432-.238 2.91c-.286.476-.525.62-.86 1.24-.333.62.144 1 .335 1.192z" fill-rule="evenodd" fill="#e78724"/><path d="M7.868 4.317l-.165-.105c-.488.017.165.105.165.105z" fill-rule="evenodd" fill="#fdc168"/><path d="M13.973 5.243s-.763-.127-1.145-.7c-.382-.57-1.462-1.716-3.186-1.73-1.723-.012-3.427.46-3.427.46l1.488.94c.157-.006.432-.004.887.01 1.868.063 2.155 1.91 2.155 1.91l6.582-.906" fill-rule="evenodd" fill="#fba919"/><path d="M14.61 15.446s-.892.89-2.26.604c-1.366-.286-2.193-.89-2.257-1.94-.063-1.05.287-1.462.287-1.462s1.526.477 2.257 1.113c.732.637 1.272 1.654 1.972 1.686z" fill-rule="evenodd" fill="#fff"/><path d="M13.53 15.128s-.77.353-1.634.065c-1.13-.377-1.205-1.55-1.205-1.55 0-.002-.692 2.033 1.25 2.424 1.56.314 2.48-.59 2.48-.59l-.89-.35z" fill-rule="evenodd" fill="#c9c9c9"/><path d="M14.08 4.812c-.083-1.745 1.347-3.134 1.842-3.193.028.294-.027 1.447.468 1.802.144-.942.632-1.98 2.558-2.66-.413 1.094-.055 2.01.115 2.435 1.315-1.194 2.2-.997 2.2-.997s-.913 1.577-.555 2.61c-2.64-.206-6.615.282-6.628.002z" fill-rule="evenodd" fill="#463014"/><path d="M8.484 7.47c-.63-.524-.16-1.01-.21-1.602-.028-.316-.053-.614-.157-.78-.58-.914-1.947-1.192-1.96-1.195l-.642-.125.425-.497c.055-.064 1.8-1.728 4.5-.857 1.888.61 3.286 2.675 3.338 2.758l-.947.447c-.01-.018-1.116-1.96-2.736-2.482-1.31-.422-2.517-.02-3.034.243.55.22 1.27.62 1.702 1.303.204.324.238.73.272 1.124.043.52.084 1.013.468 1.332l-1.018.333z" fill-rule="evenodd" fill="#463014"/><path d="M6.8 15.097s.795-.984 1.03-2.9c.092-.753-.072-2.24-.334-2.813.047 1.407-.31 2.814-.31 2.814s-.24 2.613-.385 2.9z" fill-rule="evenodd" fill="#463014"/><path d="M10.986 6.475c0-.002-.255-1.113-.96-1.674-.994-.79-2.208-.37-2.22-.365L7.63 3.89c.06-.02 1.446-.456 2.725.443 1.287.904 1.44 1.723 1.454 1.814l-.824.328z" fill-rule="evenodd" fill="#463014"/><path d="M9.294 14.39s-.417-.595-.342-1.25c.037-.324.187-.656.455-.774.498-.22.72.345.72.345-.002 0-.702.174-.833 1.68z" fill-rule="evenodd" fill="#463014"/><path d="M13.865 15.3l.026.05s-1.297.975-2.628-.014c-.713-.53-.645-1.84-.427-2.396.567.128 1.05.36 1.45.63-.507-.453-.952-.787-.95-.795l-.58-.163-1.122-.385c-.015.085-.424 2.006.758 3.314.525.58 2.983 1.88 4.15-.34l-.675.1z" fill-rule="evenodd" fill="#463014"/><path d="M13.743 15.443c.73 1.112 2.576.476 2.544-.7 0 0-1.232.68-2.32-.572-.637-.73-2.674-2.747-5.437-2.076 1.908.42 4.434 2.162 5.213 3.35z" fill-rule="evenodd" fill="#463014"/><path d="M8.272 18.583c.176.102.796.744.796 1.705 0 .482-.048 2.902-.286 4.38.36.233.608.283.966.52.178-1.712.307-4.194.247-5.196-.068-1.142-.68-1.908-1.247-2.235-.178-.102-.363-.203-.55-.304-.97-.525-1.976-1.068-1.976-1.995 0-.725.282-.952.58-1.192l.033-.026c.198-.16.422-.342.555-.64.362-.814.42-2.89 0-3.417-.21-.262-.774-1.145-.612-1.738.062-.227.205-.395.437-.513.245-.126.577-.19.986-.19.803 0 1.693.244 2.152.39 1.64.52 3.62 2.02 4.19 2.466.015.013.024.02.026.02l.363.254-.226-.38c-.014-.024-1.452-2.39-4.024-3.256-.5-.17-1.484-.452-2.45-.452-.575 0-1.063.1-1.45.298-.47.24-.79.626-.922 1.112-.325 1.19.733 2.517.77 2.56.123.22.175 1.82-.11 2.46-.04.087-.147.174-.283.284l-.14.11c-.402.302-1.01.76-1.01 1.817 0 1.446 1.465 2.23 2.643 2.86.193.104.377.202.544.298z" fill-rule="evenodd" fill="#463014"/><path d="M8.484 7.47c-.63-.524-.16-1.01-.21-1.602-.028-.316-.053-.614-.157-.78-.58-.914-1.947-1.192-1.96-1.195l-.642-.125.425-.497c.055-.064 1.8-1.728 4.5-.857 1.888.61 3.286 2.675 3.338 2.758l-.947.447c-.01-.018-1.116-1.96-2.736-2.482-1.31-.422-2.517-.02-3.034.243.55.22 1.27.62 1.702 1.303.204.324.238.73.272 1.124.043.52.084 1.013.468 1.332l-1.018.333z" fill-rule="evenodd" fill="#463014"/><path d="M8.463 7.576l-.04-.034c-.468-.387-.385-.77-.305-1.14.037-.17.075-.345.06-.526-.026-.304-.05-.59-.142-.736-.552-.87-1.886-1.15-1.9-1.153l-.8-.157.53-.622c.01-.01 1.13-1.142 3.028-1.142.517 0 1.047.086 1.574.256 1.97.636 3.377 2.777 3.39 2.8l.058.09-1.12.526-.046-.07c-.12-.206-1.182-1.958-2.685-2.443-.37-.12-.757-.18-1.155-.18-.72 0-1.303.197-1.614.33.52.233 1.15.626 1.547 1.254.216.342.25.76.286 1.164.04.502.08.975.433 1.267l.133.112-1.233.404z" fill-rule="evenodd" fill="#463014"/><path d="M10.986 6.475c0-.002-.255-1.113-.96-1.674-.994-.79-2.208-.37-2.22-.365L7.63 3.89c.06-.02 1.446-.456 2.725.443 1.287.904 1.44 1.723 1.454 1.814l-.824.328z" fill-rule="evenodd" fill="#463014"/><path d="M10.917 6.605l-.024-.11c-.003-.01-.252-1.083-.926-1.62-.385-.305-.848-.46-1.377-.46-.412 0-.72.098-.752.11l-.092.03-.236-.726.09-.03c.04-.013.41-.128.93-.128.688 0 1.337.2 1.88.583 1.32.926 1.48 1.783 1.494 1.878l.01.075-.997.397M8.59 4.225c.565 0 1.083.173 1.496.5.598.478.88 1.32.965 1.62l.65-.257c-.06-.23-.318-.917-1.4-1.677-.517-.363-1.112-.547-1.77-.547-.36 0-.64.057-.78.092l.12.362c.134-.037.395-.093.72-.093z" fill-rule="evenodd" fill="#463014"/><path d="M14.465 30.29c-.28 0-.57-.102-.768-.275-.153-.13-.67-.605-.897-1.186-.085-.218-.066-.392.058-.517.085-.085.26-.188.62-.188H15.402c.27 0 .466.058.58.173.143.148.096.337.056.436-.07.173-.36.738-.852 1.264-.176.188-.432.292-.72.292z" fill-rule="evenodd" fill="#463014"/><path d="M14.76 15.508l-1.017-.065s.26.458.43 1.05c.19.672-.175 1.652-.175 1.652s1.357-1.536.763-2.637z" fill-rule="evenodd" fill="#463014"/><path d="M13.49 32.977c-3.62-.28-4.895-3.7-4.895-4.413h.946-.472.473c.005.308.968 3.235 4.023 3.47l-.072.943z" fill-rule="evenodd" fill="#463014"/><path d="M12.473 26.846c-.057-.327-.063-.637.006-.942-.276-.207-.77-.284-1.14-.404-.303-.192-1.854.196-2.98-1.165-1.408-1.705-1.112-2.723-1.112-2.723-.36.402-.71.25-1.262 2.12-.552 1.874.26 3.18 1.77 4.49.713.62 1.722.874 2.59.97-.29-.29.497-.32 1.04-.523-.044-.44.028-.864.355-1.207.198-.206.45-.33.714-.428.015-.034.027-.065.04-.098-.007-.03-.016-.06-.02-.09z" fill-rule="evenodd" fill="#fff"/><path d="M11.378 28.658c-.03-.092-.055-.186-.078-.28-.026-.103-.15-.395.004-.062-.04-.085-.066-.173-.085-.262-2.447-.003-4.576-1.683-4.165-5.214-.32-.425-.77.857-.77.857s-1.223 3.557 1.94 4.935c1.054.46 1.985.79 2.205.656.458.093.87-.226 1.026-.436-.03-.064-.055-.13-.078-.194z" fill-rule="evenodd" fill="#c9c9c9"/><path d="M12.43 26.334c.003-.298.063-.587.207-.875l.033-.06c-.94-.007-2.026-.097-2.95-.467-1.014-.406-2.283-1.794-2.5-3.426 0 0-1.913 1.475-1.35 4.63.526 2.966 3.007 3.932 5.836 4.096 0-.02-.32-.68-.218-1.084-1.606.116-3.402-.505-4.27-1.932-.793-1.306-.57-3.535-.244-3.862.796 2.51 3.66 3.02 5.455 2.978z" fill-rule="evenodd" fill="#463014"/><path d="M12.725 24.536c-.51 1.494-1.55 2.703-1.55 2.703s1.432-.066 1.51-.32c.06-.186 1.292-3.073 1.765-6.454-.445.732-1.68 3.942-1.725 4.07z" fill-rule="evenodd" fill="#463014"/><path d="M20.83 21.092s1.62 2.48 2.81 4.24c.184.272-1.19.29-1.19.29l-1.62-4.53z" fill-rule="evenodd" fill="#e78724"/><g><path d="M20.056 15.95s.49 1.22.757 1.867c.29.703 1.4 1.052 1.4 1.052s-.576-.603-.576-2.13c0-.64-.826-.895-.826-.895l-.754.105z" fill-rule="evenodd" fill="#e78724"/></g><g><path d="M20.55 16.64s1.002 1.192 2.862.525c1.86-.668 2.05-3.053 2.05-3.72 0-.668-3.528.667-4.006.953-.477.287-1.383 1.43-.906 2.242z" fill-rule="evenodd" fill="#e78724"/></g><g><path d="M27.576 3.9s-1.717-.335-2.862.572c-1.145.906-1.48 1.62-1.48 1.62l1.93 1.53s.933-.432 1.22-1.672c.285-1.24.095-1.812 1.192-2.05z" fill-rule="evenodd" fill="#e78724"/></g><g><path d="M21.05 13.196c.74-1.05 1.958-1.507 2.93-1.583 1.66-.13 2.447.457 2.447.457s-2.716.115-3.5 1.143c-1.457 1.914-3.582 2.07-3.922 1.65.393.02.825-.176 1.288-.614.29-.275.524-.72.758-1.054z" fill-rule="evenodd" fill="#e78724"/></g><g><path d="M25.636 16.906s3.014-1.036 2.44-2.085c-.57-1.048-.116-1.62-.116-1.62s1.683 1.256 1.254 2.591c-.263.82-.705 1.415-3.133 2.552-1.163 2.163-.24 6.056-.295 6.075-.092.03-1.634-.763-1.53-4.405.033-1.12.122-2.646 1.38-3.106z" fill-rule="evenodd" fill="#e78724"/></g><g><path d="M21.687 5.766c1.264.642 2.995 1.536 2.995 1.536l-.68.34c.064.106.095.17.095.17l-.7.317s-1.706 1.235-2.752 2.03c.348-1.073 1.372-2.76 1.372-2.76s.29-.776-.33-1.634z" fill-rule="evenodd" fill="#e78724"/></g><g><path d="M17.49 31.934c3.883 0 5.2-1.972 5.2-1.972l-.608 1.48c-.23.638-2.677 2.628-4.587 2.628" fill-rule="evenodd" fill="#e78724"/></g><g><path d="M22.263 28.63s-.357 2.184-1.788 2.184c-1.216 0-1.574-1.845-1.574-2.226l3.363.042z" fill-rule="evenodd" fill="#e78724"/></g><g><path d="M24.645 25.336c-.128-.35-.573-1.764-.716-3.052-.173-1.542-.11-3.798-.11-3.798s.382 1.48.715 1.718c.335.238.954 1.86.954 1.86s.332 2.413.49 3.225c-.438.086-.806-.17-1.335.046z" fill-rule="evenodd" fill="#e78724"/></g><g><path d="M28.1 15.768s-.81-.287-1.05-2.05c-.238-1.766.287-3.292.287-3.292s-.048 2.432.238 2.91c.287.476.525.62.86 1.24.333.62-.144 1-.335 1.192z" fill-rule="evenodd" fill="#e78724"/></g><g><path d="M27.132 4.317l.166-.105c.488.017-.166.105-.166.105z" fill-rule="evenodd" fill="#fdc168"/></g><g><path d="M21.027 5.243s.764-.127 1.145-.7c.38-.57 1.463-1.716 3.186-1.73 1.723-.012 3.428.46 3.428.46l-1.488.94c-.158-.006-.433-.004-.888.01-1.868.063-2.155 1.91-2.155 1.91l-6.582-.906" fill-rule="evenodd" fill="#fba919"/></g><g><path d="M20.39 15.446s.892.89 2.26.604c1.366-.286 2.193-.89 2.257-1.94.063-1.05-.286-1.462-.286-1.462s-1.526.477-2.257 1.113c-.73.637-1.272 1.654-1.972 1.686z" fill-rule="evenodd" fill="#fff"/></g><g><path d="M21.47 15.128s.77.353 1.634.065c1.13-.377 1.205-1.55 1.205-1.55 0-.002.692 2.033-1.25 2.424-1.56.314-2.482-.59-2.482-.59l.89-.35z" fill-rule="evenodd" fill="#c9c9c9"/></g><g><path d="M26.517 7.47c.63-.524.16-1.01.21-1.602.027-.316.052-.614.156-.78.58-.914 1.947-1.192 1.96-1.195l.643-.125-.425-.497c-.054-.064-1.8-1.728-4.5-.857-1.887.61-3.285 2.675-3.337 2.758l.946.447c.01-.018 1.116-1.96 2.736-2.482 1.31-.422 2.517-.02 3.034.243-.55.22-1.268.62-1.7 1.303-.206.324-.24.73-.273 1.124-.044.52-.085 1.013-.47 1.332l1.02.333z" fill-rule="evenodd" fill="#463014"/></g><g><path d="M28.2 15.097s-.795-.984-1.03-2.9c-.092-.753.072-2.24.334-2.813-.048 1.407.31 2.814.31 2.814s.242 2.613.385 2.9z" fill-rule="evenodd" fill="#463014"/></g><g><path d="M24.015 6.475c0-.002.254-1.113.96-1.674.993-.79 2.207-.37 2.218-.365l.177-.545c-.06-.02-1.446-.456-2.725.443-1.287.904-1.44 1.723-1.454 1.814l.825.328z" fill-rule="evenodd" fill="#463014"/></g><g><path d="M25.706 14.39s.417-.595.342-1.25c-.037-.324-.187-.656-.455-.774-.498-.22-.718.345-.718.345s.7.174.83 1.68z" fill-rule="evenodd" fill="#463014"/></g><g><path d="M21.135 15.3l-.026.05s1.297.975 2.628-.014c.713-.53.645-1.84.427-2.396-.567.128-1.05.36-1.45.63.507-.453.952-.787.95-.795l.58-.163 1.122-.385c.015.085.424 2.006-.76 3.314-.523.582-2.98 1.88-4.146-.34l.675.1z" fill-rule="evenodd" fill="#463014"/></g><g><path d="M21.257 15.443c-.732 1.112-2.576.476-2.544-.7 0 0 1.232.68 2.32-.572.637-.73 2.675-2.747 5.437-2.076-1.907.42-4.433 2.162-5.213 3.35z" fill-rule="evenodd" fill="#463014"/></g><g><path d="M26.73 18.583c-.177.102-.798.744-.798 1.705 0 .482.048 2.902.287 4.38-.36.233-.61.283-.967.52-.18-1.712-.308-4.194-.247-5.196.068-1.142.68-1.908 1.246-2.235.178-.102.363-.203.55-.304.972-.525 1.976-1.068 1.976-1.995 0-.725-.282-.952-.58-1.192l-.032-.026c-.198-.16-.423-.342-.555-.64-.362-.814-.42-2.89 0-3.417.21-.262.774-1.145.612-1.738-.062-.227-.205-.395-.437-.513-.245-.126-.577-.19-.986-.19-.803 0-1.693.244-2.152.39-1.64.52-3.62 2.02-4.188 2.466-.017.013-.026.02-.028.02l-.363.254.226-.38c.014-.024 1.453-2.39 4.024-3.256.5-.17 1.484-.452 2.45-.452.575 0 1.063.1 1.45.298.47.24.79.626.922 1.112.325 1.19-.733 2.517-.77 2.56-.122.22-.174 1.82.11 2.46.04.087.147.174.283.284l.14.11c.403.302 1.01.76 1.01 1.817 0 1.446-1.465 2.23-2.642 2.86-.194.104-.378.202-.544.298z" fill-rule="evenodd" fill="#463014"/></g><g><path d="M24.98 7.3c-.232-.396-.828-1.158-2.202-1.828-1.533-.747-3.307-1.126-5.274-1.127h-.008c-1.967 0-3.74.38-5.274 1.127-1.374.67-1.97 1.432-2.203 1.827l-.1.13 1.175.263.038-.047.02-.043c.018-.078.175-.498 1.487-1.137 1.402-.684 3.037-1.03 4.86-1.032 1.823 0 3.457.348 4.86 1.032 1.31.64 1.47 1.06 1.487 1.137l.02.043.037.047 1.176-.262-.1-.13z" fill-rule="evenodd" fill="#463014"/></g><g><path d="M26.517 7.47c.63-.524.16-1.01.21-1.602.027-.316.052-.614.156-.78.58-.914 1.947-1.192 1.96-1.195l.643-.125-.425-.497c-.054-.064-1.8-1.728-4.5-.857-1.887.61-3.285 2.675-3.337 2.758l.946.447c.01-.018 1.116-1.96 2.736-2.482 1.31-.422 2.517-.02 3.034.243-.55.22-1.268.62-1.7 1.303-.206.324-.24.73-.273 1.124-.044.52-.085 1.013-.47 1.332l1.02.333z" fill-rule="evenodd" fill="#463014"/></g><g><path d="M25.304 7.172l.133-.11c.353-.293.392-.765.435-1.268.034-.404.07-.822.286-1.164.398-.628 1.028-1.022 1.547-1.256-.31-.13-.895-.327-1.615-.327-.397 0-.785.06-1.155.18-1.502.484-2.564 2.235-2.685 2.44l-.045.072-1.12-.528.057-.09c.013-.022 1.42-2.164 3.39-2.8.527-.17 1.057-.255 1.575-.255 1.897 0 3.017 1.13 3.027 1.142l.53.62-.8.157c-.014.003-1.348.282-1.9 1.154-.092.146-.116.432-.142.736-.015.18.023.357.06.528.08.37.163.75-.304 1.14l-.04.032-1.234-.404z" fill-rule="evenodd" fill="#463014"/></g><g><path d="M24.015 6.475c0-.002.254-1.113.96-1.674.993-.79 2.207-.37 2.218-.365l.177-.545c-.06-.02-1.446-.456-2.725.443-1.287.904-1.44 1.723-1.454 1.814l.825.328z" fill-rule="evenodd" fill="#463014"/></g><g><path d="M23.085 6.208l.012-.075c.014-.095.175-.95 1.493-1.878.543-.382 1.192-.583 1.88-.583.52 0 .89.114.93.128l.09.03-.236.725-.09-.03c-.035-.012-.342-.11-.754-.11-.53 0-.992.155-1.376.46-.674.537-.924 1.61-.926 1.62l-.025.11-.997-.397m4.046-1.89l.117-.363c-.14-.035-.42-.092-.78-.092-.657 0-1.253.184-1.77.548-1.082.762-1.34 1.45-1.4 1.678l.65.258c.085-.302.366-1.143.965-1.62.413-.328.93-.502 1.495-.502.325 0 .586.056.722.093z" fill-rule="evenodd" fill="#463014"/></g><g><path d="M19.814 29.998c-.49-.525-.782-1.09-.852-1.264-.04-.1-.086-.288.058-.436.113-.115.307-.174.58-.174h1.924c.357 0 .534.104.618.19.124.124.143.298.058.515-.227.58-.744 1.054-.896 1.185-.2.173-.487.275-.77.275-.288 0-.544-.104-.72-.292z" fill-rule="evenodd" fill="#463014"/></g><g><path d="M20.24 15.508l1.017-.065s-.26.458-.43 1.05c-.19.672.175 1.652.175 1.652s-1.356-1.536-.762-2.637z" fill-rule="evenodd" fill="#463014"/></g><g><path d="M17.5 11.875c-.648 0-1.494-.018-2.128-.473 0 0 .83 1.456 2.127 1.456v-.184.184c1.298 0 2.13-1.456 2.13-1.456-.636.456-1.482.473-2.13.473z" fill-rule="evenodd" fill="#e78724"/></g><g><path d="M19.286 11.868c-.65.394-1.232.53-1.786.543-.554-.012-1.135-.148-1.785-.542 0 0 .947 1.156 1.78 1.165h.01c.833-.01 1.78-1.165 1.78-1.165z" fill-rule="evenodd" fill="#463014"/></g><g><path d="M21.51 32.977l-.073-.943c3.055-.235 4.017-3.162 4.022-3.47h.945c0 .712-1.274 4.134-4.895 4.413z" fill-rule="evenodd" fill="#463014"/></g><g><path d="M22.527 26.846c.057-.327.063-.637-.006-.942.276-.207.77-.284 1.14-.404.303-.192 1.854.196 2.98-1.165 1.41-1.705 1.112-2.723 1.112-2.723.36.402.71.25 1.263 2.12.55 1.874-.26 3.18-1.77 4.49-.714.62-1.723.874-2.59.97.29-.29-.498-.32-1.04-.523.044-.44-.03-.864-.356-1.207-.198-.206-.45-.33-.714-.428-.015-.034-.027-.065-.04-.098.008-.03.016-.06.02-.09z" fill-rule="evenodd" fill="#fff"/></g><g><path d="M23.622 28.658c.032-.092.055-.186.078-.28.026-.103.15-.395-.004-.062.04-.085.066-.173.085-.262 2.447-.003 4.576-1.683 4.164-5.214.32-.425.77.857.77.857s1.224 3.557-1.94 4.935c-1.053.46-1.984.79-2.204.656-.458.093-.872-.226-1.026-.436.03-.064.056-.13.078-.194z" fill-rule="evenodd" fill="#c9c9c9"/></g><g><path d="M22.57 26.334c-.002-.298-.064-.587-.207-.875l-.033-.06c.942-.007 2.026-.097 2.95-.467 1.014-.406 2.283-1.794 2.502-3.426 0 0 1.91 1.475 1.35 4.63-.528 2.966-3.01 3.932-5.837 4.096-.002-.02.318-.68.217-1.084 1.606.116 3.402-.505 4.27-1.932.793-1.306.57-3.535.244-3.862-.795 2.51-3.66 3.02-5.455 2.978z" fill-rule="evenodd" fill="#463014"/></g><g><path d="M23.713 27.077c-.338-.365-.96-.8-2.392-.8l-3.815-.003H17.496l-3.817.002c-1.434 0-2.055.436-2.393.8-.493.533-.57 1.273-.23 2.197.906 2.46 2.18 4.96 6.438 4.965h.01c4.26-.004 5.532-2.504 6.437-4.965.34-.924.264-1.664-.23-2.196M23.05 29.1c-.43 1.236-1.59 4.228-5.55 4.233-3.96-.005-5.12-2.996-5.55-4.232-.24-.685-.22-1.192.056-1.508.188-.215.622-.472 1.61-.472h1.033l2.85-.002c1.133 0 2.09 0 2.85.002h1.033c.99 0 1.423.257 1.61.473.278.315.296.822.057 1.508z" fill-rule="evenodd" fill="#463014"/></g><g><path d="M22.275 24.536c.51 1.494 1.55 2.703 1.55 2.703s-1.432-.066-1.51-.32c-.06-.186-1.292-3.073-1.765-6.454.445.732 1.68 3.942 1.725 4.07z" fill-rule="evenodd" fill="#463014"/></g></g><g visibility="hidden"><path d="M117.38 34.467l-9.697-2.693-2.16-24.24h23.747l-2.164 24.236-9.725 2.697z" fill-rule="evenodd" fill="#264de4"/><path d="M125.254 30.227l1.85-20.71h-9.708v22.89l7.858-2.18z" fill-rule="evenodd" fill="#2965f1"/><path d="M110.476 18.506l.267 2.973h6.653v-2.974h-6.92z" fill-rule="evenodd" fill="#ebebeb"/><path d="M109.94 12.49l.27 2.972h7.186V12.49h-7.455z" fill-rule="evenodd" fill="#ebebeb"/><path d="M117.396 26.227l-.013.004-3.31-.893-.213-2.37h-2.984l.416 4.667 6.09 1.69.014-.004v-3.093z" fill-rule="evenodd" fill="#ebebeb"/><path d="M111.11.946h3.602v1.506h-2.095v1.506h2.095v1.505h-3.6V.946z" fill-rule="evenodd"/><path d="M115.432.946h3.6v1.31h-2.094v.26h2.095V5.53h-3.6V4.153h2.094v-.262h-2.095V.946z" fill-rule="evenodd"/><path d="M119.753.946h3.6v1.31h-2.094v.26h2.094V5.53h-3.6V4.153h2.094v-.262h-2.095V.946z" fill-rule="evenodd"/><g><path d="M124.296 18.506l.537-6.017h-7.447v2.972h4.19l-.272 3.044h-3.918v2.973h3.66l-.345 3.855-3.314.895v3.093l6.094-1.69.045-.502.7-7.826.07-.798z" fill-rule="evenodd" fill="#fff"/></g><g><path d="M17.483 33.557l-11.565-3.21L3.34 1.443h28.32l-2.58 28.9-11.597 3.214z" fill-rule="evenodd" fill="#264de4"/></g><g><path d="M26.87 28.502l2.205-24.696H17.5V31.1l9.37-2.598z" fill-rule="evenodd" fill="#2965f1"/></g><g><path d="M9.25 14.526l.317 3.545H17.5v-3.544H9.25z" fill-rule="evenodd" fill="#ebebeb"/></g><g><path d="M8.61 7.35l.323 3.546H17.5V7.35H8.61z" fill-rule="evenodd" fill="#ebebeb"/></g><g><path d="M17.5 23.733l-.015.004-3.95-1.066-.25-2.826h-3.56l.497 5.566 7.262 2.016.016-.005v-3.687z" fill-rule="evenodd" fill="#ebebeb"/></g><g><path d="M25.728 14.526l.64-7.175h-8.88v3.546h4.995l-.323 3.63h-4.672v3.545h4.365l-.41 4.6-3.955 1.066v3.688l7.267-2.014.053-.6.834-9.332.086-.952z" fill-rule="evenodd" fill="#fff"/></g></g></svg>