<svg xmlns="http://www.w3.org/2000/svg" width="35" height="35"><g visibility="hidden"><path d="M29.295 7.395l-2.15 24.075-9.66 2.68-9.633-2.676-2.147-24.08h23.59z" fill-rule="evenodd" fill="#e44d26"/><path d="M17.5 32.102l7.806-2.165 1.836-20.573H17.5v22.738z" fill-rule="evenodd" fill="#f16529"/><path d="M13.322 15.27H17.5v-2.953h-7.405l.07.793.726 8.138h6.61v-2.954h-3.908l-.27-3.024z" fill-rule="evenodd" fill="#ebebeb"/><path d="M13.988 22.724h-2.965l.414 4.637 6.05 1.68.013-.003v-3.073l-.013.004-3.29-.888-.21-2.356z" fill-rule="evenodd" fill="#ebebeb"/><path d="M7.9.85h1.5v1.484h1.373V.85h1.5v4.492h-1.5V3.838H9.402v1.504H7.9V.852z" fill-rule="evenodd"/><g><path d="M14.248 2.34h-1.32V.85h4.143v1.49h-1.32v3.002h-1.502V2.34z" fill-rule="evenodd"/></g><g><path d="M17.728.85h1.565l.963 1.58.962-1.58h1.565v4.492h-1.495V3.116l-1.032 1.597h-.026l-1.033-1.597v2.226h-1.47V.852z" fill-rule="evenodd"/></g><g><path d="M23.53.85h1.5v3.007h2.112v1.485H23.53V.852z" fill-rule="evenodd"/></g><g><path d="M17.49 21.248h3.636l-.343 3.83-3.293.89v3.07l6.054-1.677.044-.498.694-7.774.073-.794H17.49v2.954z" fill-rule="evenodd" fill="#fff"/></g><g><path d="M17.49 15.263v.007h7.133l.06-.663.134-1.497.07-.793H17.49v2.946z" fill-rule="evenodd" fill="#fff"/></g></g><g visibility="hidden"><path d="M6.688 8.898s.574 2.21.655 2.95c.082.736-1.474 2.373-1.474 3.192 0 .82.326 2.294 2.128 3.03 1.802.738 2.048 2.622 2.048 3.768 0 1.147-.655 3.358-.655 3.358s-.41 5.487 1.802 6.47c2.21.982 1.72.982 2.21.982.493 0 4.096 1.475 6.226.902 2.13-.574 2.702-1.23 2.702-1.23s2.13.165 2.784-1.72c.656-1.883 1.065-5.813.82-7.615-.246-1.802-.574-4.177.9-4.996 1.475-.82 3.03-1.803 2.785-2.622-.247-.82-1.557-1.965-1.557-1.965s-.328-2.048-.082-2.54c.247-.49 1.72-1.72.902-2.62-.82-.9-2.293-.9-2.293-.9l-1.885.163s-3.194-2.866-7.37-2.703c-4.177.164-6.798 2.703-6.798 2.703s-1.392-.492-2.62 0c-1.23.49-1.474 0-1.23 1.392z" fill="#fba919"/><path d="M14.171 21.092c.002 0-1.62 2.48-2.81 4.24-.184.272 1.19.29 1.19.29l1.62-4.53z" fill="#e78724"/><path d="M14.944 15.95s-.49 1.22-.757 1.867c-.29.703-1.4 1.052-1.4 1.052s.575-.603.575-2.13c0-.64.827-.895.827-.895l.754.105z" fill="#e78724"/><path d="M14.45 16.64s-1.002 1.192-2.862.525c-1.86-.668-2.05-3.053-2.05-3.72 0-.668 3.53.667 4.006.953.477.287 1.383 1.43.906 2.242z" fill="#e78724"/><path d="M7.425 3.9s1.716-.335 2.86.572c1.146.906 1.48 1.62 1.48 1.62l-1.93 1.53S8.903 7.19 8.617 5.95C8.33 4.71 8.52 4.138 7.425 3.9z" fill="#e78724"/><path d="M13.95 13.196c-.74-1.05-1.958-1.507-2.93-1.583-1.66-.13-2.447.457-2.447.457s2.716.115 3.5 1.143c1.457 1.914 3.583 2.07 3.923 1.65-.393.02-.826-.176-1.29-.614-.288-.275-.522-.72-.757-1.054z" fill="#e78724"/><path d="M9.364 16.906S6.35 15.87 6.924 14.82c.57-1.048.116-1.62.116-1.62s-1.683 1.256-1.254 2.591c.263.82.705 1.415 3.133 2.552 1.163 2.163.24 6.056.295 6.075.092.03 1.635-.763 1.53-4.405-.033-1.12-.122-2.646-1.38-3.106z" fill="#e78724"/><path d="M13.313 5.766c-1.264.642-2.995 1.536-2.995 1.536l.68.34c-.063.106-.095.17-.095.17l.7.317s1.707 1.235 2.753 2.03c-.35-1.073-1.373-2.76-1.373-2.76s-.29-.776.33-1.634z" fill="#e78724"/><path d="M17.51 31.934c-3.883 0-5.2-1.972-5.2-1.972l.608 1.48c.23.638 2.677 2.628 4.587 2.628" fill="#e78724"/><path d="M12.737 28.63s.357 2.184 1.788 2.184c1.216 0 1.574-1.845 1.574-2.226l-3.363.042z" fill="#e78724"/><path d="M10.356 25.336c.127-.35.572-1.764.715-3.052.172-1.542.11-3.798.11-3.798s-.382 1.48-.716 1.718c-.333.238-.954 1.86-.954 1.86s-.332 2.413-.49 3.225c.438.086.806-.17 1.336.046z" fill="#e78724"/><path d="M6.9 15.768s.81-.287 1.05-2.05c.238-1.766-.287-3.292-.287-3.292s.048 2.432-.238 2.91c-.286.476-.525.62-.86 1.24-.333.62.144 1 .335 1.192z" fill="#e78724"/><path d="M7.868 4.317l-.165-.105c-.488.017.165.105.165.105z" fill="#fdc168"/><path d="M13.973 5.243s-.763-.127-1.145-.7c-.382-.57-1.462-1.716-3.186-1.73-1.723-.012-3.427.46-3.427.46l1.488.94c.157-.006.432-.004.887.01 1.868.063 2.155 1.91 2.155 1.91l6.582-.906" fill="#fba919"/><path d="M14.61 15.446s-.892.89-2.26.604c-1.366-.286-2.193-.89-2.257-1.94-.063-1.05.287-1.462.287-1.462s1.526.477 2.257 1.113c.732.637 1.272 1.654 1.972 1.686z" fill="#fff"/><path d="M13.53 15.128s-.77.353-1.634.065c-1.13-.377-1.205-1.55-1.205-1.55 0-.002-.692 2.033 1.25 2.424 1.56.314 2.48-.59 2.48-.59l-.89-.35z" fill="#c9c9c9"/><path d="M14.08 4.812c-.083-1.745 1.347-3.134 1.842-3.193.028.294-.027 1.447.468 1.802.144-.942.632-1.98 2.558-2.66-.413 1.094-.055 2.01.115 2.435 1.315-1.194 2.2-.997 2.2-.997s-.913 1.577-.555 2.61c-2.64-.206-6.615.282-6.628.002z" fill="#463014"/><path d="M8.484 7.47c-.63-.524-.16-1.01-.21-1.602-.028-.316-.053-.614-.157-.78-.58-.914-1.947-1.192-1.96-1.195l-.642-.125.425-.497c.055-.064 1.8-1.728 4.5-.857 1.888.61 3.286 2.675 3.338 2.758l-.947.447c-.01-.018-1.116-1.96-2.736-2.482-1.31-.422-2.517-.02-3.034.243.55.22 1.27.62 1.702 1.303.204.324.238.73.272 1.124.043.52.084 1.013.468 1.332l-1.018.333z" fill="#463014"/><path d="M6.8 15.097s.795-.984 1.03-2.9c.092-.753-.072-2.24-.334-2.813.047 1.407-.31 2.814-.31 2.814s-.24 2.613-.385 2.9z" fill="#463014"/><path d="M10.986 6.475c0-.002-.255-1.113-.96-1.674-.994-.79-2.208-.37-2.22-.365L7.63 3.89c.06-.02 1.446-.456 2.725.443 1.287.904 1.44 1.723 1.454 1.814l-.824.328z" fill="#463014"/><path d="M9.294 14.39s-.417-.595-.342-1.25c.037-.324.187-.656.455-.774.498-.22.72.345.72.345-.002 0-.702.174-.833 1.68z" fill="#463014"/><path d="M13.865 15.3l.026.05s-1.297.975-2.628-.014c-.713-.53-.645-1.84-.427-2.396.567.128 1.05.36 1.45.63-.507-.453-.952-.787-.95-.795l-.58-.163-1.122-.385c-.015.085-.424 2.006.758 3.314.525.58 2.983 1.88 4.15-.34l-.675.1z" fill="#463014"/><path d="M13.743 15.443c.73 1.112 2.576.476 2.544-.7 0 0-1.232.68-2.32-.572-.637-.73-2.674-2.747-5.437-2.076 1.908.42 4.434 2.162 5.213 3.35z" fill="#463014"/><path d="M8.272 18.583c.176.102.796.744.796 1.705 0 .482-.048 2.902-.286 4.38.36.233.608.283.966.52.178-1.712.307-4.194.247-5.196-.068-1.142-.68-1.908-1.247-2.235-.178-.102-.363-.203-.55-.304-.97-.525-1.976-1.068-1.976-1.995 0-.725.282-.952.58-1.192l.033-.026c.198-.16.422-.342.555-.64.362-.814.42-2.89 0-3.417-.21-.262-.774-1.145-.612-1.738.062-.227.205-.395.437-.513.245-.126.577-.19.986-.19.803 0 1.693.244 2.152.39 1.64.52 3.62 2.02 4.19 2.466.015.013.024.02.026.02l.363.254-.226-.38c-.014-.024-1.452-2.39-4.024-3.256-.5-.17-1.484-.452-2.45-.452-.575 0-1.063.1-1.45.298-.47.24-.79.626-.922 1.112-.325 1.19.733 2.517.77 2.56.123.22.175 1.82-.11 2.46-.04.087-.147.174-.283.284l-.14.11c-.402.302-1.01.76-1.01 1.817 0 1.446 1.465 2.23 2.643 2.86.193.104.377.202.544.298z" fill="#463014"/><path d="M8.484 7.47c-.63-.524-.16-1.01-.21-1.602-.028-.316-.053-.614-.157-.78-.58-.914-1.947-1.192-1.96-1.195l-.642-.125.425-.497c.055-.064 1.8-1.728 4.5-.857 1.888.61 3.286 2.675 3.338 2.758l-.947.447c-.01-.018-1.116-1.96-2.736-2.482-1.31-.422-2.517-.02-3.034.243.55.22 1.27.62 1.702 1.303.204.324.238.73.272 1.124.043.52.084 1.013.468 1.332l-1.018.333z" fill="#463014"/><path d="M8.463 7.576l-.04-.034c-.468-.387-.385-.77-.305-1.14.037-.17.075-.345.06-.526-.026-.304-.05-.59-.142-.736-.552-.87-1.886-1.15-1.9-1.153l-.8-.157.53-.622c.01-.01 1.13-1.142 3.028-1.142.517 0 1.047.086 1.574.256 1.97.636 3.377 2.777 3.39 2.8l.058.09-1.12.526-.046-.07c-.12-.206-1.182-1.958-2.685-2.443-.37-.12-.757-.18-1.155-.18-.72 0-1.303.197-1.614.33.52.233 1.15.626 1.547 1.254.216.342.25.76.286 1.164.04.502.08.975.433 1.267l.133.112-1.233.404z" fill="#463014"/><path d="M10.986 6.475c0-.002-.255-1.113-.96-1.674-.994-.79-2.208-.37-2.22-.365L7.63 3.89c.06-.02 1.446-.456 2.725.443 1.287.904 1.44 1.723 1.454 1.814l-.824.328z" fill="#463014"/><path d="M10.917 6.605l-.024-.11c-.003-.01-.252-1.083-.926-1.62-.385-.305-.848-.46-1.377-.46-.412 0-.72.098-.752.11l-.092.03-.236-.726.09-.03c.04-.013.41-.128.93-.128.688 0 1.337.2 1.88.583 1.32.926 1.48 1.783 1.494 1.878l.01.075-.997.397M8.59 4.225c.565 0 1.083.173 1.496.5.598.478.88 1.32.965 1.62l.65-.257c-.06-.23-.318-.917-1.4-1.677-.517-.363-1.112-.547-1.77-.547-.36 0-.64.057-.78.092l.12.362c.134-.037.395-.093.72-.093z" fill="#463014"/><path d="M14.465 30.29c-.28 0-.57-.102-.768-.275-.153-.13-.67-.605-.897-1.186-.085-.218-.066-.392.058-.517.085-.085.26-.188.62-.188H15.402c.27 0 .466.058.58.173.143.148.096.337.056.436-.07.173-.36.738-.852 1.264-.176.188-.432.292-.72.292z" fill="#463014"/><path d="M14.76 15.508l-1.017-.065s.26.458.43 1.05c.19.672-.175 1.652-.175 1.652s1.357-1.536.763-2.637z" fill="#463014"/><path d="M13.49 32.977c-3.62-.28-4.895-3.7-4.895-4.413h.946-.472.473c.005.308.968 3.235 4.023 3.47l-.072.943z" fill="#463014"/><path d="M12.473 26.846c-.057-.327-.063-.637.006-.942-.276-.207-.77-.284-1.14-.404-.303-.192-1.854.196-2.98-1.165-1.408-1.705-1.112-2.723-1.112-2.723-.36.402-.71.25-1.262 2.12-.552 1.874.26 3.18 1.77 4.49.713.62 1.722.874 2.59.97-.29-.29.497-.32 1.04-.523-.044-.44.028-.864.355-1.207.198-.206.45-.33.714-.428.015-.034.027-.065.04-.098-.007-.03-.016-.06-.02-.09z" fill="#fff"/><path d="M11.378 28.658c-.03-.092-.055-.186-.078-.28-.026-.103-.15-.395.004-.062-.04-.085-.066-.173-.085-.262-2.447-.003-4.576-1.683-4.165-5.214-.32-.425-.77.857-.77.857s-1.223 3.557 1.94 4.935c1.054.46 1.985.79 2.205.656.458.093.87-.226 1.026-.436-.03-.064-.055-.13-.078-.194z" fill="#c9c9c9"/><path d="M12.43 26.334c.003-.298.063-.587.207-.875l.033-.06c-.94-.007-2.026-.097-2.95-.467-1.014-.406-2.283-1.794-2.5-3.426 0 0-1.913 1.475-1.35 4.63.526 2.966 3.007 3.932 5.836 4.096 0-.02-.32-.68-.218-1.084-1.606.116-3.402-.505-4.27-1.932-.793-1.306-.57-3.535-.244-3.862.796 2.51 3.66 3.02 5.455 2.978z" fill="#463014"/><path d="M12.725 24.536c-.51 1.494-1.55 2.703-1.55 2.703s1.432-.066 1.51-.32c.06-.186 1.292-3.073 1.765-6.454-.445.732-1.68 3.942-1.725 4.07z" fill="#463014"/><path d="M20.83 21.092s1.62 2.48 2.81 4.24c.184.272-1.19.29-1.19.29l-1.62-4.53z" fill="#e78724"/><g><path d="M20.056 15.95s.49 1.22.757 1.867c.29.703 1.4 1.052 1.4 1.052s-.576-.603-.576-2.13c0-.64-.826-.895-.826-.895l-.754.105z" fill="#e78724"/></g><g><path d="M20.55 16.64s1.002 1.192 2.862.525c1.86-.668 2.05-3.053 2.05-3.72 0-.668-3.528.667-4.006.953-.477.287-1.383 1.43-.906 2.242z" fill="#e78724"/></g><g><path d="M27.576 3.9s-1.717-.335-2.862.572c-1.145.906-1.48 1.62-1.48 1.62l1.93 1.53s.933-.432 1.22-1.672c.285-1.24.095-1.812 1.192-2.05z" fill="#e78724"/></g><g><path d="M21.05 13.196c.74-1.05 1.958-1.507 2.93-1.583 1.66-.13 2.447.457 2.447.457s-2.716.115-3.5 1.143c-1.457 1.914-3.582 2.07-3.922 1.65.393.02.825-.176 1.288-.614.29-.275.524-.72.758-1.054z" fill="#e78724"/></g><g><path d="M25.636 16.906s3.014-1.036 2.44-2.085c-.57-1.048-.116-1.62-.116-1.62s1.683 1.256 1.254 2.591c-.263.82-.705 1.415-3.133 2.552-1.163 2.163-.24 6.056-.295 6.075-.092.03-1.634-.763-1.53-4.405.033-1.12.122-2.646 1.38-3.106z" fill="#e78724"/></g><g><path d="M21.687 5.766c1.264.642 2.995 1.536 2.995 1.536l-.68.34c.064.106.095.17.095.17l-.7.317s-1.706 1.235-2.752 2.03c.348-1.073 1.372-2.76 1.372-2.76s.29-.776-.33-1.634z" fill="#e78724"/></g><g><path d="M17.49 31.934c3.883 0 5.2-1.972 5.2-1.972l-.608 1.48c-.23.638-2.677 2.628-4.587 2.628" fill="#e78724"/></g><g><path d="M22.263 28.63s-.357 2.184-1.788 2.184c-1.216 0-1.574-1.845-1.574-2.226l3.363.042z" fill="#e78724"/></g><g><path d="M24.645 25.336c-.128-.35-.573-1.764-.716-3.052-.173-1.542-.11-3.798-.11-3.798s.382 1.48.715 1.718c.335.238.954 1.86.954 1.86s.332 2.413.49 3.225c-.438.086-.806-.17-1.335.046z" fill="#e78724"/></g><g><path d="M28.1 15.768s-.81-.287-1.05-2.05c-.238-1.766.287-3.292.287-3.292s-.048 2.432.238 2.91c.287.476.525.62.86 1.24.333.62-.144 1-.335 1.192z" fill="#e78724"/></g><g><path d="M27.132 4.317l.166-.105c.488.017-.166.105-.166.105z" fill="#fdc168"/></g><g><path d="M21.027 5.243s.764-.127 1.145-.7c.38-.57 1.463-1.716 3.186-1.73 1.723-.012 3.428.46 3.428.46l-1.488.94c-.158-.006-.433-.004-.888.01-1.868.063-2.155 1.91-2.155 1.91l-6.582-.906" fill="#fba919"/></g><g><path d="M20.39 15.446s.892.89 2.26.604c1.366-.286 2.193-.89 2.257-1.94.063-1.05-.286-1.462-.286-1.462s-1.526.477-2.257 1.113c-.73.637-1.272 1.654-1.972 1.686z" fill="#fff"/></g><g><path d="M21.47 15.128s.77.353 1.634.065c1.13-.377 1.205-1.55 1.205-1.55 0-.002.692 2.033-1.25 2.424-1.56.314-2.482-.59-2.482-.59l.89-.35z" fill="#c9c9c9"/></g><g><path d="M26.517 7.47c.63-.524.16-1.01.21-1.602.027-.316.052-.614.156-.78.58-.914 1.947-1.192 1.96-1.195l.643-.125-.425-.497c-.054-.064-1.8-1.728-4.5-.857-1.887.61-3.285 2.675-3.337 2.758l.946.447c.01-.018 1.116-1.96 2.736-2.482 1.31-.422 2.517-.02 3.034.243-.55.22-1.268.62-1.7 1.303-.206.324-.24.73-.273 1.124-.044.52-.085 1.013-.47 1.332l1.02.333z" fill="#463014"/></g><g><path d="M28.2 15.097s-.795-.984-1.03-2.9c-.092-.753.072-2.24.334-2.813-.048 1.407.31 2.814.31 2.814s.242 2.613.385 2.9z" fill="#463014"/></g><g><path d="M24.015 6.475c0-.002.254-1.113.96-1.674.993-.79 2.207-.37 2.218-.365l.177-.545c-.06-.02-1.446-.456-2.725.443-1.287.904-1.44 1.723-1.454 1.814l.825.328z" fill="#463014"/></g><g><path d="M25.706 14.39s.417-.595.342-1.25c-.037-.324-.187-.656-.455-.774-.498-.22-.718.345-.718.345s.7.174.83 1.68z" fill="#463014"/></g><g><path d="M21.135 15.3l-.026.05s1.297.975 2.628-.014c.713-.53.645-1.84.427-2.396-.567.128-1.05.36-1.45.63.507-.453.952-.787.95-.795l.58-.163 1.122-.385c.015.085.424 2.006-.76 3.314-.523.582-2.98 1.88-4.146-.34l.675.1z" fill="#463014"/></g><g><path d="M21.257 15.443c-.732 1.112-2.576.476-2.544-.7 0 0 1.232.68 2.32-.572.637-.73 2.675-2.747 5.437-2.076-1.907.42-4.433 2.162-5.213 3.35z" fill="#463014"/></g><g><path d="M26.73 18.583c-.177.102-.798.744-.798 1.705 0 .482.048 2.902.287 4.38-.36.233-.61.283-.967.52-.18-1.712-.308-4.194-.247-5.196.068-1.142.68-1.908 1.246-2.235.178-.102.363-.203.55-.304.972-.525 1.976-1.068 1.976-1.995 0-.725-.282-.952-.58-1.192l-.032-.026c-.198-.16-.423-.342-.555-.64-.362-.814-.42-2.89 0-3.417.21-.262.774-1.145.612-1.738-.062-.227-.205-.395-.437-.513-.245-.126-.577-.19-.986-.19-.803 0-1.693.244-2.152.39-1.64.52-3.62 2.02-4.188 2.466-.017.013-.026.02-.028.02l-.363.254.226-.38c.014-.024 1.453-2.39 4.024-3.256.5-.17 1.484-.452 2.45-.452.575 0 1.063.1 1.45.298.47.24.79.626.922 1.112.325 1.19-.733 2.517-.77 2.56-.122.22-.174 1.82.11 2.46.04.087.147.174.283.284l.14.11c.403.302 1.01.76 1.01 1.817 0 1.446-1.465 2.23-2.642 2.86-.194.104-.378.202-.544.298z" fill="#463014"/></g><g><path d="M24.98 7.3c-.232-.396-.828-1.158-2.202-1.828-1.533-.747-3.307-1.126-5.274-1.127h-.008c-1.967 0-3.74.38-5.274 1.127-1.374.67-1.97 1.432-2.203 1.827l-.1.13 1.175.263.038-.047.02-.043c.018-.078.175-.498 1.487-1.137 1.402-.684 3.037-1.03 4.86-1.032 1.823 0 3.457.348 4.86 1.032 1.31.64 1.47 1.06 1.487 1.137l.02.043.037.047 1.176-.262-.1-.13z" fill="#463014"/></g><g><path d="M26.517 7.47c.63-.524.16-1.01.21-1.602.027-.316.052-.614.156-.78.58-.914 1.947-1.192 1.96-1.195l.643-.125-.425-.497c-.054-.064-1.8-1.728-4.5-.857-1.887.61-3.285 2.675-3.337 2.758l.946.447c.01-.018 1.116-1.96 2.736-2.482 1.31-.422 2.517-.02 3.034.243-.55.22-1.268.62-1.7 1.303-.206.324-.24.73-.273 1.124-.044.52-.085 1.013-.47 1.332l1.02.333z" fill="#463014"/></g><g><path d="M25.304 7.172l.133-.11c.353-.293.392-.765.435-1.268.034-.404.07-.822.286-1.164.398-.628 1.028-1.022 1.547-1.256-.31-.13-.895-.327-1.615-.327-.397 0-.785.06-1.155.18-1.502.484-2.564 2.235-2.685 2.44l-.045.072-1.12-.528.057-.09c.013-.022 1.42-2.164 3.39-2.8.527-.17 1.057-.255 1.575-.255 1.897 0 3.017 1.13 3.027 1.142l.53.62-.8.157c-.014.003-1.348.282-1.9 1.154-.092.146-.116.432-.142.736-.015.18.023.357.06.528.08.37.163.75-.304 1.14l-.04.032-1.234-.404z" fill="#463014"/></g><g><path d="M24.015 6.475c0-.002.254-1.113.96-1.674.993-.79 2.207-.37 2.218-.365l.177-.545c-.06-.02-1.446-.456-2.725.443-1.287.904-1.44 1.723-1.454 1.814l.825.328z" fill="#463014"/></g><g><path d="M23.085 6.208l.012-.075c.014-.095.175-.95 1.493-1.878.543-.382 1.192-.583 1.88-.583.52 0 .89.114.93.128l.09.03-.236.725-.09-.03c-.035-.012-.342-.11-.754-.11-.53 0-.992.155-1.376.46-.674.537-.924 1.61-.926 1.62l-.025.11-.997-.397m4.046-1.89l.117-.363c-.14-.035-.42-.092-.78-.092-.657 0-1.253.184-1.77.548-1.082.762-1.34 1.45-1.4 1.678l.65.258c.085-.302.366-1.143.965-1.62.413-.328.93-.502 1.495-.502.325 0 .586.056.722.093z" fill="#463014"/></g><g><path d="M19.814 29.998c-.49-.525-.782-1.09-.852-1.264-.04-.1-.086-.288.058-.436.113-.115.307-.174.58-.174h1.924c.357 0 .534.104.618.19.124.124.143.298.058.515-.227.58-.744 1.054-.896 1.185-.2.173-.487.275-.77.275-.288 0-.544-.104-.72-.292z" fill="#463014"/></g><g><path d="M20.24 15.508l1.017-.065s-.26.458-.43 1.05c-.19.672.175 1.652.175 1.652s-1.356-1.536-.762-2.637z" fill="#463014"/></g><g><path d="M17.5 11.875c-.648 0-1.494-.018-2.128-.473 0 0 .83 1.456 2.127 1.456v-.184.184c1.298 0 2.13-1.456 2.13-1.456-.636.456-1.482.473-2.13.473z" fill="#e78724"/></g><g><path d="M19.286 11.868c-.65.394-1.232.53-1.786.543-.554-.012-1.135-.148-1.785-.542 0 0 .947 1.156 1.78 1.165h.01c.833-.01 1.78-1.165 1.78-1.165z" fill="#463014"/></g><g><path d="M21.51 32.977l-.073-.943c3.055-.235 4.017-3.162 4.022-3.47h.945c0 .712-1.274 4.134-4.895 4.413z" fill="#463014"/></g><g><path d="M22.527 26.846c.057-.327.063-.637-.006-.942.276-.207.77-.284 1.14-.404.303-.192 1.854.196 2.98-1.165 1.41-1.705 1.112-2.723 1.112-2.723.36.402.71.25 1.263 2.12.55 1.874-.26 3.18-1.77 4.49-.714.62-1.723.874-2.59.97.29-.29-.498-.32-1.04-.523.044-.44-.03-.864-.356-1.207-.198-.206-.45-.33-.714-.428-.015-.034-.027-.065-.04-.098.008-.03.016-.06.02-.09z" fill="#fff"/></g><g><path d="M23.622 28.658c.032-.092.055-.186.078-.28.026-.103.15-.395-.004-.062.04-.085.066-.173.085-.262 2.447-.003 4.576-1.683 4.164-5.214.32-.425.77.857.77.857s1.224 3.557-1.94 4.935c-1.053.46-1.984.79-2.204.656-.458.093-.872-.226-1.026-.436.03-.064.056-.13.078-.194z" fill="#c9c9c9"/></g><g><path d="M22.57 26.334c-.002-.298-.064-.587-.207-.875l-.033-.06c.942-.007 2.026-.097 2.95-.467 1.014-.406 2.283-1.794 2.502-3.426 0 0 1.91 1.475 1.35 4.63-.528 2.966-3.01 3.932-5.837 4.096-.002-.02.318-.68.217-1.084 1.606.116 3.402-.505 4.27-1.932.793-1.306.57-3.535.244-3.862-.795 2.51-3.66 3.02-5.455 2.978z" fill="#463014"/></g><g><path d="M23.713 27.077c-.338-.365-.96-.8-2.392-.8l-3.815-.003H17.496l-3.817.002c-1.434 0-2.055.436-2.393.8-.493.533-.57 1.273-.23 2.197.906 2.46 2.18 4.96 6.438 4.965h.01c4.26-.004 5.532-2.504 6.437-4.965.34-.924.264-1.664-.23-2.196M23.05 29.1c-.43 1.236-1.59 4.228-5.55 4.233-3.96-.005-5.12-2.996-5.55-4.232-.24-.685-.22-1.192.056-1.508.188-.215.622-.472 1.61-.472h1.033l2.85-.002c1.133 0 2.09 0 2.85.002h1.033c.99 0 1.423.257 1.61.473.278.315.296.822.057 1.508z" fill="#463014"/></g><g><path d="M22.275 24.536c.51 1.494 1.55 2.703 1.55 2.703s-1.432-.066-1.51-.32c-.06-.186-1.292-3.073-1.765-6.454.445.732 1.68 3.942 1.725 4.07z" fill="#463014"/></g></g><g visibility="hidden"><path d="M117.38 34.467l-9.697-2.693-2.16-24.24h23.747l-2.164 24.236-9.725 2.697z" fill="#264de4"/><path d="M125.254 30.227l1.85-20.71h-9.708v22.89l7.858-2.18z" fill="#2965f1"/><path d="M110.476 18.506l.267 2.973h6.653v-2.974h-6.92z" fill="#ebebeb"/><path d="M109.94 12.49l.27 2.972h7.186V12.49h-7.455z" fill="#ebebeb"/><path d="M117.396 26.227l-.013.004-3.31-.893-.213-2.37h-2.984l.416 4.667 6.09 1.69.014-.004v-3.093z" fill="#ebebeb"/><path d="M111.11.946h3.602v1.506h-2.095v1.506h2.095v1.505h-3.6V.946z"/><path d="M115.432.946h3.6v1.31h-2.094v.26h2.095V5.53h-3.6V4.153h2.094v-.262h-2.095V.946z"/><path d="M119.753.946h3.6v1.31h-2.094v.26h2.094V5.53h-3.6V4.153h2.094v-.262h-2.095V.946z"/><path d="M124.296 18.506l.537-6.017h-7.447v2.972h4.19l-.272 3.044h-3.918v2.973h3.66l-.345 3.855-3.314.895v3.093l6.094-1.69.045-.502.7-7.826.07-.798z" fill="#fff"/><g><path d="M17.485 34.26l-9.698-2.692-2.16-24.24h23.747L27.21 31.563l-9.725 2.696z" fill="#264de4"/></g><g><path d="M25.358 30.02l1.85-20.71H17.5V32.2l7.858-2.18z" fill="#2965f1"/></g><g><path d="M10.58 18.3l.267 2.973H17.5V18.3h-6.92z" fill="#ebebeb"/></g><g><path d="M10.045 12.282l.27 2.973H17.5v-2.973h-7.455z" fill="#ebebeb"/></g><g><path d="M17.5 26.02l-.013.005-3.31-.894-.213-2.37H10.98l.416 4.667 6.09 1.69.014-.003V26.02z" fill="#ebebeb"/></g><g><path d="M11.215.74h3.6v1.505h-2.094V3.75h2.096v1.507h-3.6V.74z"/></g><g><path d="M15.536.74h3.6v1.31h-2.094v.26h2.095v3.013h-3.6V3.948h2.094v-.262h-2.094V.74z"/></g><g><path d="M19.857.74h3.6v1.31h-2.094v.26h2.095v3.013h-3.6V3.948h2.094v-.262h-2.095V.74z"/></g><g><path d="M24.4 18.3l.537-6.018H17.49v2.973h4.19l-.27 3.045h-3.92v2.973h3.66l-.344 3.856-3.316.894v3.093l6.095-1.69.044-.502.698-7.827.073-.798z" fill="#fff"/></g></g><g visibility="hidden"><path d="M2.182 2.182h30.636v30.636H2.182V2.182z" fill="#f7df1e"/><path d="M10.238 27.784l2.344-1.42c.452.803.864 1.48 1.85 1.48.947 0 1.543-.37 1.543-1.808v-9.79h2.88v9.83c0 2.982-1.75 4.34-4.3 4.34-2.302 0-3.64-1.193-4.318-2.633z"/><g><path d="M20.418 27.475l2.344-1.357c.617 1.008 1.42 1.748 2.838 1.748 1.193 0 1.953-.597 1.953-1.42 0-.986-.78-1.336-2.097-1.912l-.72-.308c-2.077-.884-3.455-1.995-3.455-4.34 0-2.159 1.646-3.804 4.217-3.804 1.83 0 3.146.638 4.092 2.304l-2.242 1.44c-.494-.885-1.028-1.235-1.85-1.235-.844 0-1.38.536-1.38 1.235 0 .864.536 1.213 1.77 1.748l.72.31C29.054 22.93 30.43 24 30.43 26.405c0 2.59-2.035 4.01-4.77 4.01-2.674 0-4.4-1.275-5.244-2.94z"/></g></g><g visibility="hidden"><path d="M11.016 24.23c.156 0 .227.074.227.226v7.632c0 .28-.053.55-.165.8-.11.25-.253.468-.44.655s-.405.334-.654.44c-.25.107-.517.165-.8.165H8.56c-.28 0-.552-.053-.8-.165-.25-.106-.47-.253-.656-.44-.187-.187-.333-.405-.44-.654-.11-.25-.165-.517-.165-.802v-1.75c0-.155.07-.248.213-.293l1.486-.392c.142-.044.213.01.213.165v2.19c0 .11.035.2.115.275.076.076.17.116.276.116h.134c.107 0 .2-.036.276-.117.075-.075.115-.17.115-.275V24.46c0-.156.075-.227.226-.227.005-.004 1.46-.004 1.46-.004m6.355 9.575c.023.156-.044.227-.195.227H15.69c-.144 0-.224-.075-.246-.227l-.134-1.597h-1.014l-.134 1.597c-.022.156-.106.227-.244.227H12.43c-.155 0-.217-.075-.195-.227l1.23-9.345c.02-.156.105-.227.26-.227h2.16c.155 0 .24.076.262.227l1.224 9.345m-2.19-3.43l-.306-3.614h-.133l-.306 3.614h.748m5.945-6.145c.28 0 .547.052.8.163.25.112.468.254.655.44.187.188.334.406.44.655.108.25.165.516.165.8v5.688c0 .28-.053.552-.164.802-.112.25-.254.467-.44.654-.188.186-.406.333-.655.44-.25.11-.516.165-.8.165h-2.45c-.155 0-.226-.076-.226-.227v-9.35c0-.156.076-.227.227-.227l2.447-.004m.15 2.14c0-.108-.034-.2-.114-.277-.076-.075-.17-.115-.276-.115h-.52v6.305h.52c.106 0 .2-.035.276-.115.075-.076.115-.17.115-.276V26.37m7.223 5.98v1.455c0 .156-.075.227-.226.227h-3.547c-.156 0-.227-.075-.227-.227V24.46c0-.156.076-.227.227-.227h3.542c.155 0 .226.076.226.227v1.45c0 .157-.075.228-.227.228h-1.865v1.864h1.615c.156 0 .227.076.227.227v1.455c0 .155-.075.227-.227.227h-1.615v2.207h1.864c.155 0 .23.075.23.23z" fill="#569a83"/><g><path d="M23.092 13.204c.1.1.11.267-.01.35-.294.193-.67.165-1.02.13-.59-.066-1.29-.093-1.594-.646-.01 0-.01-.01-.02-.018-.385-.212.268-.36.453-.387.415-.055.857.055 1.262.147.34.065.663.157.93.424m5.377 8.784c-.277.193-.157.525-.35.755-.194.22-.664.22-.912.22-1.06.01-2.09-.073-3.13.01-.268.02-.507.055-.756.12-.074.018-.193.064-.276.018-.212-.11-.405-.46-.68-.35-.232.103-.407.434-.683.232-.506-.378-.93-.037-1.464.064-.553.11-1.078-.193-1.62-.046-.407.12-.793.24-1.208.1-.414-.146-.524-.468-.165-.772.57-.47 1.28-.543 1.988-.488 1.078.092 2.146.01 3.223-.046.037 0 .055.018.055.046.46.184.755-.184 1.023-.507.036-.046.1-.018.12.01.386.57.855-.074 1.344-.02.128.01.248.047.33.167.038.055.047.12.047.184.018.295.396.23.387-.064 0-.046.055-.092.1-.074.388.157.885.36 1.198-.046.267-.34.304-.83.33-1.243.057-1.114-.017-2.256-.1-3.36-.064-1.078-.184-2.174-.055-3.25.13-1.07.12-2.11.1-3.187-.008-.562-.036-1.123 0-1.685.02-.516.112-1.068.056-1.584-.055-.46-.33-.855-.386-1.306-.055-.415 0-.847.1-1.252.056-.25.185-.553.176-.81-.01-.222-.02-.452-.01-.673 0-.11-.018-.286.065-.378.13-.157.194-.387-.11-.415-.728-.092-1.473-.552-2.164-.1.01.156.018.33-.018.487l.1.13c.176.073.35.1.544.11.22 0 .46-.056.68-.037.186.018.342.184.278.396-.046.156-.184.285-.267.414-.147.23-.12.562-.12.83-.008.67 0 1.343.02 1.997.018.552.073 1.114.11 1.666.01.01.046.02.046.046.018.626.23 1.243.24 1.87.01.01-.166.773-.166.773-.01.81-.074 2.31-.074 2.31-.01 1.38-.25 2.753-.01 4.125.102.552-.11 1.086-.128 1.64-.02.607.055 1.205-.037 1.813.01.037 0 .073-.045.092-1.262.24-2.54.285-3.83.212-.323-.02-.7-.046-1.013.073-.12.056-.286.13-.433.12-.185-.018-.277-.166-.452-.193-.22-.046-.433-.092-.645-.11-.57-.074-1.114-.11-1.648.12-.295.128-.608.073-.902-.047-.35-.147-.617-.322-1.004-.13-.157.075-.296.157-.47.194-.148.036-.277 0-.406-.056-.294-.11-.524-.147-.838-.092.037.046.01.13-.055.13-1.868-.102-3.746.12-5.615.146-.092.02-.157.12-.212.12h-.055c-.046 0-.056-.157-.046-.184-.25-.276-.185-1.188-.175-1.455.073-1.74-.148-3.49-.194-5.222-.018-.865-.018-1.74.12-2.596.166-.967.166-1.906.147-2.873-.046-1.926.148-3.84.092-5.765 0-.037.037-.046.056-.037l.018-.01c.516-.045 1.077-.183 1.584-.045.01 0 .018.01.018.018l.074.01h.57c.02 0 .047.01.047.02 1.01.008 2.024-.075 3.037-.12.35-.01.718 0 1.068-.11.175-.057.387-.15.57-.13.462.037.93.175 1.382.276.323.064.544-.488.83-.295.432.278.93.176 1.426.186.267.01.516-.047.783-.047.147 0 .267.036.396.064.13-.018.24-.01.386.046l2.358-.074c.47.01.985.046 1.436-.13.12-.045.184-.11.22-.183-.017-.037-.036-.073-.054-.12-.037-.064-.074-.147-.12-.193-.506-.166-1.087-.12-1.62-.147-.728-.037-1.437.064-2.164.12-.672.055-1.372.1-2.044.046-.396-.038-1.142-.213-1.483.063-.037.018-.064.018-.1 0-.646-.525-1.493.267-2.23.046-.44-.13-.856-.222-1.325-.167-.45.046-.893.11-1.354.11-1.003-.008-1.998.056-3 .02-.222-.01-.434-.01-.637-.038-.174-.018-.404-.11-.58-.036-.275.1-.33.192-.303.275.074.055-.184.405-.184.58l-.018.46c-.01.682-.056 1.308-.212 1.97-.074.35-.25.848-.12 1.198.074.23.25.386.35.59.175.377.184.837.166 1.242l-.112 3.96c-.046 1.316-.13 2.642-.073 3.968.046 1.224.24 2.477.073 3.692-.055.405-.543 1.123-.073 1.41.267.155.58.192.884.22.744.046 1.49-.037 2.245-.12.277-.037.553-.092.83-.092.21-.01.404.018.607.092.175.064.442.184.644.184.01.008.332-.01.35-.102.276-.12.516-.212.866-.147.34.065.644.11 1.003.047.184-.037.46-.056.645-.01l.074.056c.073-.037-.047.092-.12.12-.415.165-.286.7-.332 1.058 0 .038-.046.047-.064.047-.166 0-.396 0-.488-.175-.194-.36-.663-.607-.663.148 0 .046-.037.064-.065.064-.036 0-.064-.018-.064-.064s-.488-.304-.543-.332c-.24-.13-.516-.285-.8-.184-.176.055-.324.157-.49.23-.294.36-.607.746-1.04.516-.092-.046-.45-.36-.525-.295-.1.11-.21.22-.35.276-.395.158-.81.13-1.233.12-.02 0-.065-.017-.065-.054-.018-.166-.11-.497-.34-.295-.056.047-.102.093-.157.15-.064.054-.147.127-.23.164-.276.11-1.124-.037-1.234-.23-.09-.147-.12-.294-.156-.46-.064-.405-.018-.847-.036-1.262-.037-1.04-.11-2.062-.194-3.103-.046-.526-.092-1.07-.046-1.603.02-.34.037-.81.212-1.123.147-.25.046-.45-.147-.635-.046-.057-.065-.158-.065-.222-.037-.387.037-.792.055-1.18.02-.284.065-.57.065-.855 0-.22-.046-.433-.065-.645-.01-.11-.018-.22.047-.322.128-.184.11-.285.036-.497-.147-.406 0-.894.02-1.318.036-.497.054-.985 0-1.492-.056-.552-.167-1.086-.13-1.648.037-.506.064-.967.092-1.464.046-.902.046-1.814.018-2.716v.212s-.073-1.15.405-1.427c.738-.406 1.63-.34 2.432-.378 1.04-.047 2.09.054 3.13.054.61 0 1.207-.01 1.796-.147.415-.092.83-.13 1.253-.11.516.036 1.013.165 1.52.21.506.047 1.003.02 1.51-.008 1.096-.075 2.2-.047 3.296 0l1.713.073c.266.01.57.073.828.01l.488-.167c.36-.1.607-.01.957.074l1.29.304c.146-.037.285-.046.395.064.24.22.01.497.184.746.212.295.405.488.45.865.047.405.066.847-.063 1.243-.093.267-.213.552-.102.837.064.175.184.34.23.525.092.396.092.792.064 1.197-.018.46-.046.93-.1 1.38-.038.296-.158.58-.167.867-.01.238.065.44.11.67.157.756-.506 1.235-.625 1.925-.065.378.36.212.552.433.12.147.055.387.046.543-.046.407.074.803.055 1.208-.018.506-.175.92-.055 1.427.065.285.12.57.055.856-.064.287-.396 1.005.046 1.134.018 0 .036.018.036.046 0 .13-.018.22-.073.34-.194.442.11.35.165.636.056.267-.1.36-.147.607-.063.396.148.7.13 1.087-.01.36-.212.562-.147.893.018 0 .046.018.046.046.035.174.054.377-.01.552-.093.248-.194.322.09.47.075-.056.075.008.03.036m-4.816-12.22c-.175-1.076-.277-2.2-.636-3.23-.156-.433-.23-.903-.736-.986-.663-.11-.442.442-.35.967.13.81.184 1.638.396 2.44.147.552.414 1.205-.323.782-1.233-.746-1.657-2.376-2.154-3.59-.22-.554-.865-1.87-1.307-2.202-.21-.156-1.252-.386-1.454-.248-.434.294.9 2.366 1.085 2.734.405.83.838 1.648 1.363 2.394.377.525.967 1.013.13 1.326-.867.332-1.29-.156-1.88-.608-.47-.35-1.068-.405-1.657-.47-1.62-.192-3.157-.008-4.455 1.07-.627.524-1.023 1.242-1.354 1.98-.09.183-.625 1.813-.55 1.822-.333-.055-.13-.83-.554-.378-.377.396.11 1.538.276 1.934.378.884.774 1.75 1.068 2.67.295.92.36.902 1.207.976 1.077.1 2.136-.23 3.195-.36 0 0-1.88-1.17 1.832.11.83.287 1.703.213 2.57.24.616-.146.634-1.205.956-1.703.12-.185.72-1.124.903-1.198.267-.1.644.175.91.212 1.548.24 2.027-1.03 1.778-2.274-.21-1.087-.09-2.302.066-3.14.064-.313-.267-.985-.322-1.27M16.74 22.99c-.167-.157-.416-.194-.58-.36-.093-.1-.12-.193-.103-.303 0 0-.01 0-.01-.01-.12-.222.158-.406.35-.332.102.046.25.11.268.23.01.157-.092.267-.12.405.11.065.22.22.276.295.038.064-.035.12-.08.074z" fill="#c1272d"/></g></g><g visibility="hidden"><path d="M5.425 14.533c.365 0 .66.05.884.15.224.1.336.224.336.374 0 .183-.046.39-.137.623-.093.232-.18.423-.263.573-.033.033-.075.037-.125.012-.05-.025-.074-.07-.074-.137.05-.116.074-.282.074-.498 0-.233-.062-.424-.186-.573-.125-.15-.295-.225-.51-.225-.284 0-.512.088-.686.262-.175.174-.262.42-.262.735 0 .265.07.518.212.76.14.24.3.48.473.72.175.242.337.5.486.774.15.274.223.585.223.934 0 .598-.24 1.063-.722 1.395-.48.333-1.112.498-1.892.498-.565 0-1.01-.09-1.333-.273-.324-.182-.486-.38-.486-.597 0-.066.024-.158.073-.275.05-.116.116-.24.2-.373.083-.133.174-.266.274-.4.1-.132.207-.24.324-.323.05-.034.096-.026.138.024.04.05.045.1.012.15-.1.1-.174.203-.224.31-.05.11-.075.255-.075.437 0 .3.1.545.3.736.2.19.457.286.773.286.43 0 .768-.12 1.01-.36.24-.24.36-.537.36-.885 0-.316-.07-.61-.212-.885-.14-.274-.294-.54-.46-.797-.166-.258-.32-.52-.46-.785-.142-.265-.212-.548-.212-.847 0-.432.182-.793.548-1.084.365-.29.905-.437 1.62-.437z" fill="#606060"/><path d="M12.226 14.658c.083.034.116.08.1.137-.017.06-.09.104-.224.137-.25 0-.536.01-.86.025-.324.017-.67.042-1.034.075-.332.814-.606 1.607-.822 2.38-.216.77-.324 1.4-.324 1.88 0 .565.216.847.648.847.432 0 .913-.374 1.445-1.122.05-.033.095-.033.137 0 .04.034.054.09.037.175-.283.465-.64.868-1.072 1.208-.432.342-.855.512-1.27.512-.433 0-.752-.104-.96-.312-.208-.208-.31-.494-.31-.86 0-.48.115-1.145.347-1.992.233-.848.532-1.71.898-2.592-.433.05-.83.117-1.196.2-.084-.016-.104-.058-.063-.125.042-.065.116-.136.225-.21.106-.075.235-.142.385-.2.15-.058.29-.087.423-.087h.2c.066 0 .132-.008.2-.025.214-.48.44-.947.672-1.395.232-.45.464-.855.697-1.22.1-.117.237-.22.41-.313.175-.09.346-.16.512-.21.165-.05.302-.08.41-.088.108-.008.153.02.137.087-.283.43-.56.912-.835 1.444-.274.532-.535 1.088-.784 1.67.315-.017.635-.026.96-.026h.908z" fill="#606060"/><path d="M27.342 2.193c.25 0 .452.062.61.187.158.124.266.29.324.498.058.208.066.445.025.71-.04.266-.136.532-.285.797-.034.034-.075.034-.125 0-.05-.033-.083-.074-.1-.124.034-.198-.037-.364-.212-.497-.174-.133-.444-.2-.81-.2-.68 0-1.365.254-2.055.76-.69.507-1.358 1.176-2.005 2.006-.648.83-1.254 1.785-1.82 2.864-.564 1.08-1.054 2.192-1.47 3.338-.414 1.146-.742 2.284-.983 3.413-.24 1.13-.36 2.16-.36 3.09 0 .498.14.747.423.747.2 0 .394-.083.585-.25.19-.165.41-.414.66-.746.05-.033.096-.03.137.012.042.042.054.096.038.162-.333.498-.723.914-1.17 1.246-.45.332-.857.498-1.222.498-.316 0-.536-.09-.66-.274-.125-.183-.187-.415-.187-.697 0-.78.165-1.757.497-2.928.332-1.17.776-2.408 1.333-3.712.557-1.304 1.2-2.604 1.93-3.9.732-1.295 1.492-2.46 2.28-3.5.79-1.037 1.583-1.88 2.38-2.528.797-.648 1.544-.972 2.242-.972z" fill="#b3d107"/><g><path d="M5.22 32.807c-.248 0-.45-.062-.61-.187-.157-.124-.265-.29-.323-.498-.058-.208-.066-.444-.025-.71.042-.266.137-.532.286-.797.034-.034.075-.034.125 0 .05.033.083.074.1.124-.033.2.037.365.212.498.174.132.444.2.81.2.68 0 1.366-.255 2.055-.76.69-.508 1.358-1.176 2.005-2.006.648-.83 1.255-1.786 1.82-2.866.564-1.08 1.054-2.192 1.47-3.338.414-1.146.742-2.284.983-3.413.24-1.13.36-2.16.36-3.09 0-.498-.14-.747-.422-.747-.2 0-.395.082-.586.25-.19.165-.41.414-.66.746-.05.033-.095.03-.137-.012-.04-.042-.054-.096-.037-.162.332-.498.722-.914 1.17-1.246.45-.332.856-.498 1.22-.498.317 0 .537.09.66.274.126.183.188.415.188.698 0 .78-.165 1.756-.498 2.927-.332 1.17-.776 2.408-1.333 3.712-.556 1.304-1.2 2.604-1.93 3.9-.732 1.295-1.49 2.46-2.28 3.5-.79 1.038-1.583 1.88-2.38 2.528-.797.648-1.544.972-2.242.972z" fill="#b3d107"/></g><g><path d="M22.05 20.91c-.696 0-1.045-.38-1.045-1.145 0-.265.03-.573.087-.92.058-.35.15-.71.274-1.085.125-.374.27-.752.436-1.134.166-.38.365-.747.598-1.096-.183.117-.357.237-.523.36-.166.126-.316.255-.45.387-.05.034-.094.022-.136-.037-.04-.058-.044-.112-.01-.162.28-.3.684-.606 1.207-.922.523-.315 1.026-.564 1.508-.747.082 0 .145.02.186.06.043.043.047.097.014.163-.532.698-.96 1.454-1.283 2.267-.323.815-.485 1.604-.485 2.367 0 .482.15.723.448.723.216 0 .482-.145.798-.436.316-.29.648-.673.997-1.146.35-.474.702-1.01 1.06-1.607.356-.597.684-1.203.983-1.818.05-.1.195-.2.436-.3.24-.1.486-.15.735-.15.25 0 .325.068.226.2-.233.433-.436.835-.61 1.21-.175.373-.32.742-.437 1.108-.117.365-.204.734-.262 1.108-.06.374-.088.785-.088 1.233 0 .533.14.8.424.8.282 0 .598-.25.947-.75.05-.032.1-.032.15 0 .05.035.066.085.05.15-.283.433-.594.76-.934.985-.34.224-.652.336-.934.336-.698 0-1.047-.406-1.047-1.22 0-.847.15-1.685.45-2.516-.633 1.146-1.297 2.056-1.995 2.728-.698.673-1.287 1.01-1.77 1.01z" fill="#606060"/></g><g><path d="M32.34 14.533c.365 0 .66.05.885.15.224.1.336.224.336.374 0 .183-.045.39-.136.623-.092.232-.18.423-.262.573-.033.033-.074.037-.124.012-.05-.025-.075-.07-.075-.137.05-.116.075-.282.075-.498 0-.233-.062-.424-.187-.573-.123-.15-.294-.225-.51-.225-.282 0-.51.088-.685.262-.174.175-.26.42-.26.735 0 .265.07.518.21.76.14.24.3.48.474.72.173.242.335.5.485.774.15.274.224.585.224.934 0 .598-.242 1.063-.724 1.395-.482.333-1.113.498-1.893.498-.565 0-1.01-.09-1.333-.273-.324-.182-.486-.38-.486-.597 0-.066.025-.158.075-.275.05-.116.115-.24.198-.373s.174-.266.274-.4c.1-.132.208-.24.324-.323.05-.034.096-.026.137.024.04.05.046.1.013.15-.1.1-.175.203-.225.31-.048.11-.073.255-.073.437 0 .3.1.545.3.736.198.19.455.286.77.286.433 0 .77-.12 1.01-.36s.36-.537.36-.885c0-.316-.07-.61-.21-.885-.142-.274-.295-.54-.46-.797-.168-.258-.32-.52-.462-.785-.142-.265-.212-.548-.212-.847 0-.432.182-.793.548-1.084.366-.29.906-.437 1.62-.437z" fill="#606060"/></g></g><g visibility="hidden"><path d="M29.325 19.34c-1.142.005-2.135.28-2.967.686-.305-.604-.61-1.142-.664-1.537-.06-.46-.13-.743-.06-1.293.072-.55.395-1.334.39-1.394-.007-.06-.073-.34-.73-.347-.66-.006-1.227.126-1.293.3-.064.173-.19.568-.274.974-.113.6-1.316 2.734-2.004 3.853-.22-.437-.413-.82-.454-1.125-.06-.46-.132-.74-.06-1.292.072-.55.395-1.334.39-1.394-.007-.06-.073-.34-.73-.346-.66-.006-1.227.125-1.293.3-.066.172-.138.58-.275.974-.138.394-1.735 3.96-2.154 4.88-.215.473-.4.85-.532 1.107 0 0-.006.018-.024.048-.114.22-.18.34-.18.34v.007c-.09.162-.185.31-.233.31-.036 0-.102-.43.012-1.016.238-1.238.807-3.164.8-3.23 0-.036.108-.37-.37-.544-.467-.174-.634.113-.676.113-.042 0-.072.102-.072.102s.52-2.165-.993-2.165c-.946 0-2.25 1.035-2.896 1.968-.407.22-1.274.694-2.2 1.202-.354.198-.72.395-1.06.58-.024-.024-.048-.053-.072-.078-1.83-1.956-5.216-3.337-5.073-5.963.053-.956.382-3.47 6.502-6.52 5.036-2.482 9.044-1.794 9.738-.27.993 2.18-2.148 6.222-7.352 6.81-1.986.22-3.026-.546-3.29-.833-.275-.3-.317-.317-.418-.257-.168.09-.06.36 0 .514.155.407.795 1.125 1.878 1.478.957.31 3.284.484 6.1-.604 3.154-1.22 5.618-4.612 4.895-7.454C20.909 5.34 16.123 4.39 11.595 6c-2.692.956-5.61 2.464-7.71 4.426-2.495 2.333-2.89 4.36-2.728 5.21.58 3.015 4.737 4.977 6.4 6.43-.083.048-.16.09-.227.126-.83.413-4.002 2.07-4.79 3.822-.9 1.986.142 3.41.83 3.6 2.136.593 4.33-.47 5.51-2.23 1.178-1.76 1.034-4.044.49-5.09-.006-.012-.012-.024-.024-.036.215-.126.437-.258.652-.383.425-.25.843-.485 1.202-.676-.203.555-.353 1.22-.425 2.176-.09 1.125.37 2.584.976 3.16.27.25.587.256.79.256.706 0 1.023-.586 1.376-1.28.43-.85.82-1.837.82-1.837s-.485 2.668.83 2.668c.48 0 .964-.622 1.18-.94v.007l.035-.06.08-.125v-.012c.19-.335.62-1.095 1.26-2.357.827-1.627 1.622-3.66 1.622-3.66s.072.495.317 1.32c.143.486.442 1.018.68 1.532-.19.27-.31.42-.31.42l.006.005c-.155.203-.323.425-.508.64-.652.778-1.43 1.67-1.538 1.926-.125.304-.095.526.144.705.173.132.484.15.802.132.586-.042.998-.186 1.202-.275.317-.114.688-.288 1.035-.545.64-.472 1.03-1.148.993-2.04-.018-.49-.18-.98-.377-1.44.06-.085.112-.17.172-.253 1.01-1.477 1.795-3.098 1.795-3.098s.072.497.317 1.322c.12.42.365.873.58 1.316-.95.772-1.537 1.67-1.747 2.255-.377 1.088-.083 1.578.473 1.692.25.054.61-.066.873-.18.335-.107.73-.293 1.107-.568.64-.472 1.256-1.13 1.22-2.022-.018-.406-.125-.807-.275-1.196.808-.335 1.848-.52 3.176-.365 2.85.336 3.41 2.113 3.303 2.86-.107.748-.706 1.155-.903 1.28-.197.126-.263.168-.245.258.024.13.12.125.287.1.233-.04 1.495-.603 1.55-1.98.09-1.757-1.586-3.677-4.547-3.66M7.36 26.745c-.945 1.03-2.26 1.418-2.83 1.09-.61-.354-.37-1.874.79-2.962.706-.664 1.615-1.28 2.22-1.657.137-.084.34-.204.586-.353.04-.024.065-.036.065-.036l.145-.09c.425 1.555.018 2.925-.975 4.008m6.88-4.678c-.33.802-1.018 2.854-1.437 2.74-.36-.096-.58-1.65-.07-3.188.256-.772.8-1.693 1.117-2.052.515-.574 1.083-.766 1.22-.532.174.305-.628 2.53-.83 3.032m5.676 2.716c-.138.072-.27.12-.33.084-.04-.024.06-.12.06-.12s.712-.765.994-1.112c.16-.204.352-.443.556-.712V23c0 .915-.886 1.53-1.28 1.782m4.378-1c-.1-.07-.083-.31.258-1.058.13-.293.442-.783.975-1.256.06.192.1.377.095.55-.006 1.155-.83 1.586-1.328 1.765z" fill="#cd6799"/></g><g visibility="hidden"><path d="M34.12 17.5c0 4.826-7.442 8.738-16.62 8.738S.88 22.326.88 17.5 8.323 8.762 17.5 8.762s16.62 3.912 16.62 8.738z" fill-rule="evenodd" fill="url(#a)"/><defs><radialGradient id="a" gradientUnits="userSpaceOnUse" cx="10.859" cy="11.835" r="47.138" fx="17.5" fy="17.5"><stop offset="0" stop-color="#fff"/><stop offset=".5" stop-color="#4c6b97"/><stop offset="1" stop-color="#231f20"/></radialGradient></defs><path d="M33.47 17.5c0 4.467-7.15 8.09-15.97 8.09S1.53 21.966 1.53 17.5 8.68 9.41 17.5 9.41s15.97 3.623 15.97 8.09z" fill-rule="evenodd" fill="#6181b6"/><path d="M20.733 20.123l.792-4.077c.182-.922.026-1.61-.44-2.04-.456-.414-1.235-.622-2.378-.622h-1.376l.39-2.025c.014-.08 0-.157-.05-.222-.053-.065-.118-.09-.196-.09h-1.896c-.13 0-.233.09-.26.207l-.843 4.323c-.078-.493-.26-.908-.57-1.246-.56-.636-1.43-.96-2.61-.96h-3.65c-.13 0-.233.09-.26.207l-1.7 8.776c-.013.078 0 .156.052.22.052.066.117.09.195.09H7.84c.13 0 .234-.09.26-.206l.415-2.117H9.93c.74 0 1.377-.078 1.857-.233.507-.17.96-.442 1.363-.818.325-.3.598-.637.806-1l-.338 1.753c-.013.078 0 .156.052.22.052.065.117.09.195.09h1.895c.13 0 .234-.09.26-.206l.935-4.805h1.298c.558 0 .714.104.766.155.038.04.116.195.025.676l-.753 3.882c-.013.078 0 .156.052.22.052.065.117.09.195.09h1.946c.117-.038.22-.128.247-.245m-8.777-3.376c-.117.61-.338 1.052-.662 1.298-.325.247-.857.377-1.558.377h-.844l.61-3.142h1.09c.806 0 1.13.17 1.26.31.17.21.208.612.104 1.157z" fill="#fff"/><g><path d="M28.835 14.332c-.56-.636-1.43-.96-2.61-.96H22.55c-.13 0-.233.09-.26.207l-1.7 8.763c-.013.078 0 .156.052.22.052.066.117.09.195.09l1.908.002c.13 0 .234-.09.26-.208l.416-2.117h1.416c.74 0 1.376-.077 1.856-.233.507-.17.96-.442 1.364-.818.337-.313.623-.663.83-1.04.208-.377.364-.792.455-1.246.222-1.13.053-2.013-.505-2.662m-1.987 2.415c-.117.61-.337 1.052-.662 1.298-.325.247-.857.377-1.558.377h-.844l.61-3.142h1.09c.806 0 1.13.17 1.26.31.182.21.22.612.104 1.157z" fill="#fff"/></g><g><path d="M10.593 15.02c.727 0 1.207.13 1.454.403.247.272.298.727.17 1.376-.13.674-.39 1.167-.767 1.453-.377.286-.948.428-1.714.428l-1.156.002.714-3.662h1.3m-4.65 7.375h1.91l.454-2.324h1.636c.727 0 1.31-.077 1.778-.233.468-.156.883-.402 1.273-.766.324-.298.584-.622.78-.973.194-.35.336-.74.414-1.168.207-1.04.05-1.845-.455-2.43-.507-.583-1.312-.87-2.415-.87H7.646l-1.7 8.765z" fill="#000004"/></g><g><path d="M15.59 11.307h1.897l-.454 2.324h1.687c1.065 0 1.792.183 2.195.56.402.376.52.973.363 1.804l-.792 4.077h-1.92l.752-3.88c.09-.443.052-.74-.09-.897-.144-.156-.47-.247-.95-.247H16.76l-.974 5.025H13.89l1.7-8.763z" fill="#000004"/></g><g><path d="M25.485 15.02c.727 0 1.207.13 1.454.403.246.272.298.727.168 1.376-.13.674-.39 1.167-.766 1.453-.377.286-.948.428-1.714.428l-1.156.002.714-3.662h1.3m-4.65 7.375h1.91l.454-2.324h1.636c.727 0 1.31-.077 1.778-.233.468-.156.883-.402 1.273-.766.324-.298.584-.622.78-.973.194-.35.336-.74.414-1.168.21-1.04.053-1.845-.453-2.43-.506-.583-1.31-.87-2.415-.87h-3.674l-1.7 8.765z" fill="#000004"/></g></g><g visibility="hidden"><path d="M30.16 25.57c-1.636-.042-2.904.122-3.967.572-.307.122-.798.122-.838.51.163.164.183.43.327.655.245.41.674.96 1.063 1.247.43.327.86.655 1.308.94.798.49 1.698.778 2.474 1.268.45.287.9.655 1.35.96.225.165.368.43.654.533v-.06c-.142-.185-.183-.45-.326-.656-.204-.205-.41-.39-.613-.594-.592-.797-1.328-1.492-2.126-2.065-.654-.448-2.085-1.062-2.35-1.818l-.042-.04c.45-.042.98-.206 1.41-.328.696-.184 1.33-.144 2.046-.328.327-.08.654-.184.98-.286v-.184c-.367-.368-.633-.858-1.02-1.206-1.044-.9-2.19-1.78-3.375-2.515-.634-.41-1.452-.675-2.127-1.022-.245-.123-.654-.184-.797-.39-.37-.45-.574-1.042-.84-1.573-.592-1.125-1.165-2.372-1.676-3.558-.368-.797-.593-1.595-1.043-2.33-2.104-3.477-4.395-5.583-7.91-7.648-.758-.43-1.657-.613-2.618-.838-.51-.02-1.023-.06-1.534-.082-.327-.143-.654-.53-.94-.715-1.166-.738-4.17-2.332-5.03-.226-.552 1.33.818 2.637 1.288 3.312.348.47.797 1.002 1.043 1.534.142.347.183.715.326 1.083.327.9.634 1.902 1.063 2.74.224.43.47.88.756 1.268.163.225.45.328.51.696-.285.41-.306 1.022-.47 1.533-.736 2.31-.45 5.172.593 6.87.326.51 1.103 1.635 2.146 1.206.92-.368.716-1.534.982-2.556.06-.246.02-.41.143-.573v.04c.287.574.573 1.126.84 1.698.633 1.002 1.737 2.045 2.657 2.74.49.368.88 1.002 1.493 1.227v-.062h-.04c-.124-.184-.308-.265-.47-.41-.37-.367-.78-.816-1.065-1.225-.858-1.145-1.615-2.413-2.29-3.72-.327-.635-.613-1.33-.88-1.964-.122-.245-.122-.613-.326-.735-.308.45-.758.838-.982 1.39-.39.88-.43 1.963-.573 3.087-.082.02-.04 0-.082.04-.654-.162-.88-.837-1.124-1.41-.615-1.45-.717-3.782-.185-5.46.143-.428.756-1.777.51-2.186-.122-.39-.53-.614-.756-.92-.266-.39-.553-.88-.737-1.31-.49-1.144-.736-2.412-1.267-3.557-.246-.533-.675-1.084-1.023-1.575-.388-.552-.818-.94-1.124-1.595-.103-.225-.247-.593-.083-.838.04-.164.123-.225.286-.266.266-.225 1.023.06 1.288.184.758.306 1.392.593 2.026 1.022.286.205.592.593.96.695h.43c.654.143 1.39.04 2.004.225 1.083.348 2.065.86 2.944 1.41 2.68 1.698 4.886 4.11 6.38 6.994.245.47.347.9.572 1.39.43 1.002.96 2.024 1.39 3.006.43.96.838 1.942 1.452 2.74.306.43 1.533.654 2.085.88.41.183 1.043.346 1.41.57.696.43 1.39.92 2.046 1.392.326.245 1.348.756 1.41 1.165z" fill="#00546b"/><g><path d="M9.304 7.8c-.348 0-.593.042-.838.103v.04h.04c.164.328.45.553.655.84.165.327.308.654.47.98l.042-.04c.286-.204.43-.532.43-1.022-.123-.142-.144-.285-.246-.43-.123-.203-.388-.305-.552-.47z" fill="#00546b"/></g></g><path d="M31.295 24.444l-.13.336c-2.207 4.297-6.117 6.934-11.694 7.05-2.607.054-5.09-.615-6.714-1.343-3.503-1.573-6.45-4.492-8.058-7.61C2.39 18.407 1.974 12.19 6.773 7.545c.074 0-.582 1.007-.508 1.007l-.132.43C2.675 19.808 13.33 29.086 23.685 28.025c2.49-.255 5.663-1.618 7.61-3.58z" fill-rule="evenodd" fill="#21609b"/><path d="M25.028 19.967c2.606.018 5.327-1.2 6.94-2.91-1.41 3.58-5.494 5.88-10.97 5.15-4.583-.615-8.95-5.228-9.4-9.85-.329-3.364.844-5.37 2.776-7.807-.67 1.274-.922 2.256-.985 2.883-.735 7.277 5.812 12.496 11.638 12.534z" fill-rule="evenodd" fill="#21609b"/><g><path d="M31.705 10.93c-.405.928-2.737 2.683-3.767 2.902-4.078.87-6.69-1.065-8.058-3.266-.203-.328-.58-1.226-.647-1.454-.53-1.804-.286-4.533 1.296-5.945-.478 1.343-.547 2.903-.296 3.917.152.613.615 1.683 1.08 2.357.842 1.227 1.377 1.525 2.46 2.177.49.293 1.012.528 1.238.593 1.028.302 3.197 1.1 6.693-1.28z" fill-rule="evenodd" fill="#21609b"/></g></svg>